<svg xmlns="http://www.w3.org/2000/svg" width="275" height="30" viewBox="0 0 275 30">
    <defs>
        <linearGradient id="2dosqu5e6a" x1="50.333%" x2="50.333%" y1="89.297%" y2="10.559%">
            <stop offset="0%" stop-color="#002D74"/>
            <stop offset="100%" stop-color="#002D74" stop-opacity="0"/>
        </linearGradient>
        <linearGradient id="55fr8lukqb" x1="50.083%" x2="50.083%" y1="89.189%" y2="10.45%">
            <stop offset="0%" stop-color="#002D74" stop-opacity="0"/>
            <stop offset="100%" stop-color="#002D74"/>
        </linearGradient>
    </defs>
    <g fill="none" fill-rule="evenodd">
        <path fill="#002D74" fill-rule="nonzero" d="M37.805 20.87c-1.487.02-2.918-.56-3.967-1.606-1.05-1.045-1.628-2.468-1.604-3.944-.021-1.484.559-2.914 1.61-3.97 1.052-1.054 2.486-1.646 3.981-1.64 1.644-.072 3.23.61 4.301 1.85l-1.53 1.64c-.682-.839-1.706-1.33-2.791-1.34-.873.033-1.695.415-2.279 1.06-.584.644-.881 1.495-.824 2.36-.058.89.254 1.765.863 2.42.61.656 1.463 1.035 2.36 1.05 1.08-.031 2.096-.519 2.791-1.34l1.491 1.46c-1.073 1.311-2.7 2.05-4.402 2zM46.891 20.87h-2.468V9.73h2.468v2.62c.533-1.627 2.096-2.7 3.818-2.62v2.6h-.141c-2.166 0-3.677 1.39-3.677 4.23v4.31zM63.633 9.71L58.173 23.87 55.675 23.87 56.864 20.88 52.19 9.71 54.819 9.71 58.012 17.96 61.074 9.71zM71.52 20.85c-1.463.033-2.846-.66-3.687-1.85v4.9h-2.468V9.71h2.468v2c.79-1.244 2.166-2 3.647-2 2.548 0 5.036 2 5.036 5.57 0 3.57-2.467 5.57-4.996 5.57zm-.564-9c-.883.022-1.72.403-2.313 1.052-.594.65-.893 1.513-.83 2.388-.063.876.236 1.74.83 2.391.593.651 1.429 1.034 2.313 1.059.871-.034 1.69-.424 2.262-1.077.572-.653.847-1.512.76-2.373.081-.867-.202-1.728-.781-2.38-.58-.654-1.405-1.04-2.281-1.07l.04.01zM81.916 12v5.25c-.058.364.061.733.321.996.26.262.631.386.998.334h1.008v2.19H82.52c-1.803 0-3.022-.8-3.022-3.14V12h-1.42V9.94h1.37V7h2.468v2.94h2.286V12h-2.286zM92.02 20.87c-1.507.038-2.964-.53-4.042-1.576-1.078-1.045-1.684-2.478-1.68-3.974-.066-2.326 1.296-4.458 3.443-5.391 2.147-.933 4.65-.479 6.326 1.147 1.676 1.626 2.191 4.099 1.302 6.251-.89 2.153-3.006 3.554-5.35 3.543zm0-9c-.899-.004-1.759.36-2.375 1.009-.617.648-.935 1.521-.88 2.411-.043.898.283 1.776.904 2.43.622.655 1.485 1.03 2.39 1.04.902.007 1.766-.358 2.386-1.009.619-.65.937-1.528.878-2.421.044-.9-.283-1.779-.907-2.434-.624-.655-1.49-1.029-2.397-1.036v.01zM121.393 20.87c-1.505.038-2.962-.53-4.038-1.576s-1.68-2.48-1.674-3.974c-.061-2.32 1.301-4.447 3.445-5.375 2.144-.928 4.64-.472 6.311 1.152 1.672 1.624 2.184 4.092 1.295 6.24-.889 2.147-3 3.544-5.34 3.533zm0-9c-.897-.005-1.756.361-2.371 1.01-.615.648-.931 1.521-.873 2.41-.046.897.278 1.775.897 2.43.62.655 1.482 1.03 2.387 1.04.902.007 1.766-.358 2.385-1.009.62-.65.938-1.528.879-2.421.044-.9-.284-1.779-.907-2.434-.624-.655-1.49-1.029-2.397-1.036v.01zM141.832 9.71c2.347 0 3.777 1.48 3.777 4.1v7.06h-2.468v-6.32c0-1.7-.796-2.61-2.186-2.61s-2.297.93-2.297 2.66v6.27h-2.478v-6.34c0-1.66-.816-2.59-2.175-2.59-1.36 0-2.307 1-2.307 2.68v6.25h-2.468V9.71h2.468v1.85c.696-1.141 1.94-1.842 3.284-1.85 1.352-.063 2.612.68 3.203 1.89.824-1.192 2.19-1.9 3.647-1.89zM102.304 18.63v1.23c.005.05-.024.099-.07.12l-1.078.62c-.042.03-.1.03-.141 0l-1.078-.6c-.043-.025-.07-.07-.07-.12v-1.25c.002-.052.028-.1.07-.13l1.078-.62c.044-.02.096-.02.14 0l1.079.62c.044.028.071.077.07.13zM109.799 20.86c-1.486-.01-2.904-.616-3.933-1.68-1.028-1.064-1.579-2.496-1.527-3.97.005-1.486.612-2.907 1.685-3.944 1.072-1.037 2.52-1.6 4.016-1.566 1.645-.034 3.217.676 4.271 1.93l-1.49 1.61c-.67-.85-1.685-1.36-2.77-1.39-.874.018-1.702.385-2.3 1.017-.597.632-.912 1.477-.874 2.343-.072.89.225 1.769.822 2.436.598.666 1.443 1.061 2.341 1.094 1.082-.013 2.108-.482 2.82-1.29l1.461 1.49c-1.117 1.314-2.794 2.025-4.522 1.92z"/>
        <g fill-rule="nonzero">
            <path fill="#FFF" d="M12.088 0L0 7v13.84l12.088 6.94 12.088-6.94V6.95L12.088 0zm0 0L0 7v13.84l12.088 6.94 12.088-6.94V6.95L12.088 0z" transform="translate(0 .56)"/>
            <path fill="#002D74" d="M12.088 0L0 7v13.84l12.088 6.94 12.088-6.94V6.95L12.088 0zM7.303 6h9.53l1.148 4.82H6.225L7.303 6zm3.858 14.44l-2.095 1.93H7.364l-4.342-7.53 3.193-2.35 2.85 1.78v3.17l2.136 2-.04 1zm-1.4-3.16l.322-3-1.007-2.7h6.135l-1.008 2.7.302 3H9.761zm7.122 5.06H15.17l-2.075-1.9v-.95l2.126-2v-3.22l2.82-1.83 3.183 2.38-4.341 7.52z" transform="translate(0 .56)"/>
            <path fill="url(#2dosqu5e6a)" d="M12.088 0v6h4.744l1.149 4.82h-5.893v.73h3.123l-1.008 2.7.302 3h-2.417v10.5l12.088-6.94V6.95L12.088 0zm4.795 22.34H15.17l-2.075-1.9v-.95l2.126-2v-3.22l2.82-1.83 3.183 2.38-4.341 7.52z" style="mix-blend-mode:multiply" transform="translate(0 .56)"/>
            <path fill="url(#55fr8lukqb)" d="M9.761 17.28l.322-3-1.007-2.7h3.012v-.73H6.225l1.108-4.82h4.755v-6L0 7.03v13.81l12.088 6.94v-10.5H9.76zm1.4 3.16l-2.095 1.93H7.364l-4.342-7.53 3.193-2.35 2.85 1.78v3.17l2.136 2-.04 1z" style="mix-blend-mode:multiply" transform="translate(0 .56)"/>
        </g>
        <path stroke="#B6B8BA" stroke-width=".55" d="M155.249 0L155.249 29.17"/>
        <path fill="#B6B8BA" fill-rule="nonzero" d="M173.33 20.192c2.176 0 3.466-.768 4.626-2l-1.58-1.584c-.886.8-1.675 1.312-2.965 1.312-1.934 0-3.272-1.6-3.272-3.52v-.032c0-1.92 1.37-3.488 3.272-3.488 1.128 0 2.015.48 2.885 1.264l1.58-1.808c-1.048-1.024-2.321-1.728-4.449-1.728-3.465 0-5.882 2.608-5.882 5.792v.032c0 3.216 2.465 5.76 5.786 5.76zm10.4-.192v-4.496h4.578V20h2.482V8.8h-2.482v4.432h-4.578V8.8h-2.482V20h2.482zm12.64 0l1.032-2.512h4.77L203.204 20h2.595l-4.835-11.28h-2.29L193.84 20h2.53zm4.916-4.688h-2.998l1.499-3.632 1.499 3.632zM211.444 20V8.8h-2.482V20h2.482zm6.58 0v-7.12l5.463 7.12h2.112V8.8h-2.45v6.896L217.862 8.8h-2.288V20h2.45zm22.137 0c3.545 0 5.995-2.448 5.995-5.6v-.032c0-3.152-2.45-5.568-5.995-5.568h-4.4V20h4.4zm0-2.224h-1.918v-6.752h1.918c2.03 0 3.4 1.392 3.4 3.376v.032c0 1.984-1.37 3.344-3.4 3.344zm14.993 2.416c3.481 0 6.011-2.608 6.011-5.792v-.032c0-3.184-2.498-5.76-5.98-5.76-3.48 0-6.01 2.608-6.01 5.792v.032c0 3.184 2.497 5.76 5.979 5.76zm.032-2.272c-1.999 0-3.417-1.6-3.417-3.52v-.032c0-1.92 1.386-3.488 3.385-3.488 1.998 0 3.417 1.6 3.417 3.52v.032c0 1.92-1.387 3.488-3.385 3.488zm14.783 2.272c2.176 0 3.466-.768 4.626-2l-1.58-1.584c-.886.8-1.676 1.312-2.965 1.312-1.934 0-3.272-1.6-3.272-3.52v-.032c0-1.92 1.37-3.488 3.272-3.488 1.128 0 2.015.48 2.885 1.264l1.58-1.808c-1.048-1.024-2.321-1.728-4.449-1.728-3.465 0-5.883 2.608-5.883 5.792v.032c0 3.216 2.466 5.76 5.786 5.76z"/>
    </g>
</svg>
